<svg xmlns="http://www.w3.org/2000/svg" viewBox="0 0 64 64" aria-labelledby="title"
aria-describedby="desc" role="img" xmlns:xlink="http://www.w3.org/1999/xlink">
  <title>Skull Head</title>
  <desc>A color styled icon from Orion Icon Library.</desc>
  <path data-name="layer2"
  d="M48 58a4 4 0 0 1-4 4H20a4 4 0 0 1-4-4v-6h-2a8 8 0 0 1-8-8V28A26 26 0 0 1 32 2a26 26 0 0 1 26 26v16a8 8 0 0 1-8 8h-2z"
  fill="#e8ebef"></path>
  <path data-name="opacity" d="M28 43c-5 6-12 2-11 1s-4-9-4-13 5-6 5-6S13 7.1 30.9 2A26 26 0 0 0 6 28v16a8 8 0 0 0 8 8h2v6a4 4 0 0 0 4 4h3.7c.2 0 .3-.7.3-1 0-4-1-12 4-18z"
  fill="#000064" opacity=".15"></path>
  <circle data-name="layer1" cx="20" cy="36" r="8" fill="#64738f"></circle>
  <circle data-name="layer1" cx="44" cy="36" r="8" fill="#64738f"></circle>
  <circle data-name="stroke" cx="20" cy="36" r="8" fill="none"
  stroke="#2e4369" stroke-linecap="round" stroke-linejoin="round" stroke-width="2"></circle>
  <circle data-name="stroke" cx="44" cy="36" r="8" fill="none"
  stroke="#2e4369" stroke-linecap="round" stroke-linejoin="round" stroke-width="2"></circle>
  <path data-name="stroke" d="M48 58a4 4 0 0 1-4 4H20a4 4 0 0 1-4-4v-6h-2a8 8 0 0 1-8-8V28A26 26 0 0 1 32 2a26 26 0 0 1 26 26v16a8 8 0 0 1-8 8h-2zM32 45.1V48m0 8v6m-8-6v6m16-6v6"
  fill="none" stroke="#2e4369" stroke-linecap="round" stroke-linejoin="round"
  stroke-width="2"></path>
</svg>